<svg xmlns="http://www.w3.org/2000/svg" xmlns:xlink="http://www.w3.org/1999/xlink" version="1.1" style="" xml:space="preserve" width="431.76" height="431.76"><rect id="backgroundrect" width="100%" height="100%" x="0" y="0" fill="none" stroke="none"/>
























<g class="currentLayer" style=""><title>Layer 1</title><g id="svg_1" class="" fill-opacity="1" fill="#b8035b">
	<g id="svg_2" fill="#b8035b">
		<path d="M215.88,85.12C153.556,85.164,103.044,135.676,103,198c0.557,40.682,20.351,78.696,53.36,102.48V382    c0.027,0.932,0.216,1.853,0.56,2.72v0.64c0.138,0.33,0.299,0.651,0.48,0.96l28.16,41.92c1.49,2.205,3.979,3.524,6.64,3.52h46.56    c2.661,0.004,5.15-1.315,6.64-3.52l28.16-41.92c0.181-0.309,0.342-0.63,0.48-0.96v-0.64c0.344-0.867,0.533-1.788,0.56-2.72v-81.52    c33.01-23.784,52.803-61.798,53.36-102.48C327.918,135.987,277.891,85.603,215.88,85.12z M234.92,416h-38.08l-17.44-25.92h72.88    L234.92,416z M172.44,374.08v-21.2h86.88l0.08,21.2H172.44z M263,289.52l0,0.24c-2.259,1.487-3.613,4.015-3.6,6.72v40.64h-86.96    V296c0.013-2.705-1.341-5.233-3.6-6.72c-30.628-20.467-49.233-54.687-49.76-91.52c1.537-53.483,46.14-95.594,99.623-94.057    c51.323,1.475,92.582,42.734,94.057,94.057C312.312,234.679,293.697,269.005,263,289.52z" id="svg_3" fill="#b8035b"/>
	</g>
</g><g id="svg_4" class="selected" fill-opacity="1" fill="#b8035b">
	<g id="svg_5" fill="#b8035b">
		<path d="M219.08,121.36c-4.418,0-8,3.582-8,8s3.582,8,8,8c33.251,0.044,60.196,26.989,60.24,60.24c0,4.418,3.582,8,8,8    s8-3.582,8-8C295.276,155.512,261.168,121.404,219.08,121.36z" id="svg_6" fill="#b8035b"/>
	</g>
</g><g id="svg_7" class="" fill-opacity="1" fill="#b8035b">
	<g id="svg_8" fill="#b8035b">
		<path d="M81.48,189.6h-57.6c-4.418,0-8,3.582-8,8s3.582,8,8,8h57.6c4.418,0,8-3.582,8-8c0,0,0,0,0,0    C89.48,193.182,85.898,189.6,81.48,189.6z" id="svg_9" fill="#b8035b"/>
	</g>
</g><g id="svg_10" class="" fill-opacity="1" fill="#b8035b">
	<g id="svg_11" fill="#b8035b">
		<path d="M407.88,189.6h-57.6c-4.418,0-8,3.582-8,8s3.582,8,8,8h57.6c4.418,0,8-3.582,8-8S412.298,189.6,407.88,189.6z" id="svg_12" fill="#b8035b"/>
	</g>
</g><g id="svg_13" class="" fill-opacity="1" fill="#b8035b">
	<g id="svg_14" fill="#b8035b">
		<path d="M127.313,287.12c-2.874-3.356-7.924-3.747-11.28-0.873c-0.313,0.268-0.605,0.56-0.873,0.873v-0.16L74.28,328    c-3.356,2.874-3.747,7.924-0.873,11.28c2.874,3.356,7.924,3.747,11.28,0.873c0.313-0.268,0.605-0.56,0.873-0.873l40.88-40.88    C129.796,295.526,130.187,290.476,127.313,287.12z" id="svg_15" fill="#b8035b"/>
	</g>
</g><g id="svg_16" class="" fill-opacity="1" fill="#b8035b">
	<g id="svg_17" fill="#b8035b">
		<path d="M356.607,55.22480618953705 c-2.995,-2.565 -7.412,-2.565 -10.407,0 l-40.88,40.88 c-3.137,3.111 -3.158,8.177 -0.04700000000000001,11.314 c1.513,1.526 3.577,2.379 5.727,2.366 l-0.08000000000000002,-0.08000000000000002 c2.126,0.012000000000000002 4.17,-0.8230000000000001 5.68,-2.3200000000000003 l40.88,-40.88 C360.354,63.14880618953705 359.963,58.09880618953705 356.607,55.22480618953705 z" id="svg_18" fill="#b8035b"/>
	</g>
</g><g id="svg_19" class="" fill-opacity="1" fill="#b8035b">
	<g id="svg_20" fill="#b8035b">
		<path d="M359.067,329.609c-0.45-0.609-0.984-1.151-1.587-1.609l-40.88-41.04c-2.874-3.356-7.924-3.747-11.28-0.873    c-3.356,2.874-3.747,7.924-0.873,11.28c0.268,0.313,0.56,0.605,0.873,0.873l40.88,40.88c2.626,3.553,7.636,4.304,11.189,1.678    S361.693,333.162,359.067,329.609z" id="svg_21" fill="#b8035b"/>
	</g>
</g><g id="svg_22" class="" fill-opacity="1" fill="#b8035b">
	<g id="svg_23" fill="#b8035b">
		<path d="M126.44,96.88L85.56,56c-3.356-2.874-8.406-2.483-11.28,0.873c-2.565,2.995-2.565,7.412,0,10.407l40.88,40.88    c3.356,2.874,8.406,2.483,11.28-0.873C129.005,104.292,129.005,99.875,126.44,96.88z" id="svg_24" fill="#b8035b"/>
	</g>
</g><g id="svg_25" class="">
	<g id="svg_26">
		<path d="M215.88,0c-4.418,0-8,3.582-8,8v57.84c-0.133,4.416,3.34,8.104,7.756,8.236c0.081,0.002,0.162,0.004,0.244,0.004    c4.418,0,8-3.582,8-8V8C223.88,3.582,220.298,0,215.88,0z" id="svg_27"/>
	</g>
</g><g class="" id="svg_44" fill-opacity="1" fill="#b8035b">
	<g id="svg_46" fill="#b8035b">
		<path d="M215.88,0c-4.418,0-8,3.582-8,8v57.84c-0.133,4.416,3.34,8.104,7.756,8.236c0.081,0.002,0.162,0.004,0.244,0.004    c4.418,0,8-3.582,8-8V8C223.88,3.582,220.298,0,215.88,0z" id="svg_27" fill="#b8035b"/>
	</g>
</g><g id="svg_28">
</g><g id="svg_29">
</g><g id="svg_30">
</g><g id="svg_31">
</g><g id="svg_32">
</g><g id="svg_33">
</g><g id="svg_34">
</g><g id="svg_35">
</g><g id="svg_36">
</g><g id="svg_37">
</g><g id="svg_38">
</g><g id="svg_39">
</g><g id="svg_40">
</g><g id="svg_41">
</g><g id="svg_42">
</g></g></svg>